<?xml version="1.0" encoding="iso-8859-1"?>
<!-- Generator: Adobe Illustrator 19.0.0, SVG Export Plug-In . SVG Version: 6.00 Build 0)  -->
<svg version="1.1" id="Capa_1" xmlns="http://www.w3.org/2000/svg" xmlns:xlink="http://www.w3.org/1999/xlink" x="0px" y="0px"
	 viewBox="0 0 512 512" style="enable-background:new 0 0 512 512;" xml:space="preserve">
<path d="M496,128H16c-8.832,0-16,7.168-16,16v352c0,8.832,7.168,16,16,16h480c8.832,0,16-7.168,16-16V144
	C512,135.168,504.832,128,496,128z M336,286.016c-8.832,0-16-7.168-16-16c0-21.376-17.504-33.6-32-40.032V400
	c0,26.912-28.096,48-64,48s-64-21.088-64-48s28.096-48,64-48c11.808,0,22.592,2.464,32,6.464V208c0-4.768,2.112-9.28,5.792-12.32
	s8.512-4.256,13.184-3.392C301.632,197.28,352,219.968,352,270.016C352,278.848,344.832,286.016,336,286.016z"/>
<path d="M448,80c0-8.832-7.168-16-16-16H80c-8.832,0-16,7.168-16,16v16h384V80z"/>
<path d="M384,16c0-8.832-7.168-16-16-16H144c-8.832,0-16,7.168-16,16v16h256V16z"/>
<g>
</g>
<g>
</g>
<g>
</g>
<g>
</g>
<g>
</g>
<g>
</g>
<g>
</g>
<g>
</g>
<g>
</g>
<g>
</g>
<g>
</g>
<g>
</g>
<g>
</g>
<g>
</g>
<g>
</g>
</svg>
