<?xml version="1.0" encoding="iso-8859-1"?>
<!-- Generator: Adobe Illustrator 19.0.0, SVG Export Plug-In . SVG Version: 6.00 Build 0)  -->
<svg version="1.1" id="Capa_1" xmlns="http://www.w3.org/2000/svg" xmlns:xlink="http://www.w3.org/1999/xlink" x="0px" y="0px"
	 viewBox="0 0 512 512" style="enable-background:new 0 0 512 512;" xml:space="preserve">
<g>
	<g>
		<path d="M437.02,74.981C388.668,26.629,324.38,0,256,0S123.332,26.629,74.98,74.981C26.628,123.333,0,187.62,0,256
			s26.628,132.668,74.98,181.019C123.332,485.37,187.62,512,256,512s132.668-26.629,181.02-74.981
			C485.372,388.667,512,324.38,512,256S485.372,123.332,437.02,74.981z M256,481.704C131.547,481.704,30.296,380.453,30.296,256
			S131.547,30.296,256,30.296S481.704,131.547,481.704,256S380.453,481.704,256,481.704z"/>
	</g>
</g>
<g>
	<g>
		<path d="M256,50.248c-0.559,0-1.115,0.017-1.673,0.021c-0.141-0.004-0.279-0.021-0.421-0.021c-0.237,0-0.469,0.024-0.703,0.035
			c-111.858,1.5-202.446,92.697-202.944,204.79c-0.001,0.079-0.012,0.155-0.012,0.233c0,0.047,0.007,0.093,0.007,0.139
			c0,0.186-0.007,0.37-0.007,0.554c0,113.452,92.299,205.752,205.752,205.752S461.752,369.452,461.752,256
			S369.453,50.248,256,50.248z M271.148,430.795v-19.203c0-8.366-6.782-15.148-15.148-15.148c-8.366,0-15.148,6.782-15.148,15.148
			v19.203c-84.918-7.297-152.744-75.331-159.71-160.342h16.476c8.366,0,15.148-6.782,15.148-15.148
			c0-8.366-6.782-15.148-15.148-15.148H81.267c7.523-83.664,74.016-150.587,157.492-158.766v15.534
			c0,8.366,6.782,15.148,15.148,15.148c8.366,0,15.148-6.782,15.148-15.148V81.029c84.73,6.262,152.917,72.958,161.492,157.036
			h-18.259c-8.366,0-15.148,6.782-15.148,15.148c0,8.366,6.782,15.148,15.148,15.148h18.728
			C425.001,354.345,356.762,423.439,271.148,430.795z"/>
	</g>
</g>
<g>
	<g>
		<path d="M317.318,194.68c-5.914-5.917-15.505-5.917-21.42,0L256,234.578l-77.383-77.382c-5.915-5.916-15.506-5.916-21.422,0
			s-5.916,15.506,0,21.422l88.093,88.093c2.841,2.841,6.693,4.437,10.711,4.437c4.017,0,7.871-1.597,10.711-4.437l50.608-50.609
			C323.234,210.187,323.234,200.596,317.318,194.68z"/>
	</g>
</g>
<g>
</g>
<g>
</g>
<g>
</g>
<g>
</g>
<g>
</g>
<g>
</g>
<g>
</g>
<g>
</g>
<g>
</g>
<g>
</g>
<g>
</g>
<g>
</g>
<g>
</g>
<g>
</g>
<g>
</g>
</svg>
