<?xml version="1.0" encoding="UTF-8" standalone="no"?><!DOCTYPE svg PUBLIC "-//W3C//DTD SVG 1.1//EN" "http://www.w3.org/Graphics/SVG/1.1/DTD/svg11.dtd"><svg width="100%" height="100%" viewBox="0 0 511 511" version="1.1" xmlns="http://www.w3.org/2000/svg" xmlns:xlink="http://www.w3.org/1999/xlink" xml:space="preserve" xmlns:serif="http://www.serif.com/" style="fill-rule:evenodd;clip-rule:evenodd;stroke-linejoin:round;stroke-miterlimit:2;"><path d="M133.063,394.559c-34.086,0 -64.407,-21.825 -75.417,-54.317l-0.744,-2.448c-2.597,-8.604 -3.685,-15.84 -3.685,-23.08l0,-145.173l-51.654,172.425c-6.643,25.361 8.496,51.654 33.896,58.66l329.243,88.173c4.109,1.065 8.218,1.575 12.265,1.575c21.205,0 40.582,-14.074 46.013,-34.815l19.181,-61l-309.098,0Z" style="fill:#6002ee;fill-rule:nonzero;"/><path d="M191.618,170.991c23.486,0 42.582,-19.099 42.582,-42.585c0,-23.486 -19.096,-42.586 -42.582,-42.586c-23.486,0 -42.586,19.1 -42.586,42.586c0,23.486 19.1,42.585 42.586,42.585Z" style="fill:#6002ee;fill-rule:nonzero;"/><path d="M457.767,21.944l-319.383,0c-29.338,0 -53.229,23.891 -53.229,53.233l0,234.211c0,29.342 23.891,53.233 53.229,53.233l319.383,0c29.342,0 53.233,-23.891 53.233,-53.233l0,-234.211c0,-29.342 -23.891,-53.233 -53.233,-53.233Zm-319.383,42.585l319.383,0c5.879,0 10.647,4.768 10.647,10.648l0,151.153l-67.26,-78.485c-7.135,-8.367 -17.463,-12.839 -28.555,-13.092c-11.029,0.062 -21.376,4.959 -28.445,13.435l-79.081,94.918l-25.763,-25.7c-14.562,-14.562 -38.262,-14.562 -52.804,0l-58.765,58.745l0,-200.974c0,-5.88 4.768,-10.648 10.643,-10.648Z" style="fill:#6002ee;fill-rule:nonzero;"/></svg>